# xmcd
#
# Track frame offsets:
#	150
#	13020
#	25794
#	39098
#	53547
#	69246
#	81376
#	91040
#	104177
#	122127
#	134628
#	151872
#	168696
#	185279
#	195188
#	207193
#	218484
#	230272
#	239746
#	251616
#
# Disc length: 3532 seconds
#
# Revision: 0
# Processed by: cddbd v1.5.2PL0 Copyright (c) Steve Scherf et al.
# Submitted via: dBpowerAMP V4.0
#
DISCID=060dca14
DTITLE=Country - 100 tubes country CD1
DYEAR=1900
DGENRE=Country
TTITLE0=Canned Heat - Goin' out the country
TTITLE1=Johnny Cash - Folsom prison blues
TTITLE2=B J Thomas - Raindrons keen fallling on my head
TTITLE3=Alabama - Song of the south
TTITLE4=Kenny Rogers - The gambler
TTITLE5=Charlie Rich - The most beautiful girl
TTITLE6=Wanda Jackson - Let's have a party
TTITLE7=Hank Williams - Hey good lookin'
TTITLE8=Brad Paisley - Ticks
TTITLE9=Freddy Fender - Wasted days and wasted nights
TTITLE10=Alan Jackson and Jimmy Buffett - It"s five O'clock somewhere
TTITLE11=Carll Hayes - Wish I Hadn't stayed so long
TTITLE12=Hi-Lo Band - Lonely side of town
TTITLE13=Conway twitty - It's onl make believe
TTITLE14=Waylon Jennings - Don't think twice It's alright
TTITLE15=Carl Smith - Hey Joe
TTITLE16=Tennessee Ernie Ford - Sixteen tons
TTITLE17=The Everly Brothers - Maybe tomorrow
TTITLE18=Billie Joe Spears - Look what they've done to my song ma
TTITLE19=Chet Atkins - I'll see you in my dreams
EXTD=
EXTT0=
EXTT1=
EXTT2=
EXTT3=
EXTT4=
EXTT5=
EXTT6=
EXTT7=
EXTT8=
EXTT9=
EXTT10=
EXTT11=
EXTT12=
EXTT13=
EXTT14=
EXTT15=
EXTT16=
EXTT17=
EXTT18=
EXTT19=
PLAYORDER=
